# xmcd
#
# Track frame offsets: 
#        150
#        27305
#        62775
#        90930
#        121475
#        150010
#        184495
#        213317
#        242120
#        269435
#        295222
#
# Disc length: 4282 seconds
#
# Revision: 3
# Processed by: cddbd v1.5.1PL0 Copyright (c) Steve Scherf et al.
# Submitted via: ExactAudioCopy v0.95b3
#
DISCID=9710b80b
DTITLE=Various Artist - Progression Sessions 7: Japan Live 2002
DYEAR=2002
DGENRE=Drum and Bass
TTITLE0=Greenfly - G-Funk
TTITLE1=Herbie Hancock - The Essence (Bukem's DJ Mix)
TTITLE2=Kymera - Secrets
TTITLE3=Nookie - Innerspace
TTITLE4=PFM - The western
TTITLE5=Makoto - Music has never let me down
TTITLE6=Greg Packer - Summer Breeze
TTITLE7=Soul Purpose - Faling
TTITLE8=Makoto - My Soul
TTITLE9=Org Lounge - Une femme de la mystique
TTITLE10=Makoto - You make me feel
EXTD=
EXTT0=
EXTT1=
EXTT2=
EXTT3=
EXTT4=
EXTT5=
EXTT6=
EXTT7=
EXTT8=
EXTT9=
EXTT10=
PLAYORDER=
